# xmcd
#
# Track frame offsets:
#	150
#	20413
#	38357
#	54771
#	74228
#	89231
#	105409
#	125393
#	143040
#	159148
#	178366
#	193059
#
# Disc length: 2786 seconds
#
# Revision: 1
# Processed by: cddbd v1.5.2PL0 Copyright (c) Steve Scherf et al.
# Submitted via: audiograbber 1.83.01
#
DISCID=a10ae00c
DTITLE=Cledus T. Judd - CBCDG-20322
DYEAR=1900
DGENRE=Karaoke
TTITLE0=Cledus T. Judd - Coronary Life  w/vocals
TTITLE1=Cledus T. Judd - (She's Got A Butt) Bigger Than The Beatles  w/vocals
TTITLE2=Cledus T. Judd - Where The Grass Don't Grow  w/vocals
TTITLE3=Cledus T. Judd - Shania I'm Broke  w/vocals
TTITLE4=Cledus T. Judd - Every Buld In The House Is Blown  w/vocals
TTITLE5=Cledus T. Judd - Did I Shave My Back For This?  w/vocals
TTITLE6=Cledus T. Judd - Coronary Life
TTITLE7=Cledus T. Judd - (She's Got A Butt) Bigger Than The Beatles  w/vocals
TTITLE8=Cledus T. Judd - Where The Grass Don't Grow
TTITLE9=Cledus T. Judd - Shania I'm Broke
TTITLE10=Cledus T. Judd - Every Buld In The House Is Blown
TTITLE11=Cledus T. Judd - Did I Shave My Back For This?
EXTD=Chartbuster Artist Series
EXTT0=
EXTT1=
EXTT2=
EXTT3=
EXTT4=
EXTT5=
EXTT6=
EXTT7=
EXTT8=
EXTT9=
EXTT10=
EXTT11=
PLAYORDER=
